PathFileType	4	(X/Y/Z)	C:\Users\Basilio\Documents\Thesis Gigler\squatting_fais\c3dfiles\076\SLS_back_pre5\markers_experimental.trc
DataRate	CameraRate	NumFrames	NumMarkers	Units	OrigDataRate	OrigDataStartFrame	OrigNumFrames
200.000000	200.000000	4	61	mm	200.000000	0	1578
Frame#	Time	FHD			LBHD			RBHD			C7			T10			CLAV			LSHO			LUUPA			LMUPA			LDUPA			LLEP			LMEP			LRAD			LUL			LRFIN			RSHO			RUPA1			RMUPA			RDUPA			RLEP			RMEP			RRAD			RUL			RUFIN			LASI			RASI			USACR			LSACR			RSACR			LTHI1			LTHI2			LTHI3			LTHI4			LLFC			LMFC			LTIB1			LTIB2			LTIB3			LTIB4			LLMAL			LMMAL			LHEE			LMT1			LMT2			LMT5			RTHI			RTHI2			RTHI3			RTHI4			RLFC			RMFC			RTIB1			RTIB2			RTIB3			RTIB4			RLMAL			RMMAL			RHEE			RMT1			RMT2			RMT5			
		X1	Y1	Z1	X2	Y2	Z2	X3	Y3	Z3	X4	Y4	Z4	X5	Y5	Z5	X6	Y6	Z6	X7	Y7	Z7	X8	Y8	Z8	X9	Y9	Z9	X10	Y10	Z10	X11	Y11	Z11	X12	Y12	Z12	X13	Y13	Z13	X14	Y14	Z14	X15	Y15	Z15	X16	Y16	Z16	X17	Y17	Z17	X18	Y18	Z18	X19	Y19	Z19	X20	Y20	Z20	X21	Y21	Z21	X22	Y22	Z22	X23	Y23	Z23	X24	Y24	Z24	X25	Y25	Z25	X26	Y26	Z26	X27	Y27	Z27	X28	Y28	Z28	X29	Y29	Z29	X30	Y30	Z30	X31	Y31	Z31	X32	Y32	Z32	X33	Y33	Z33	X34	Y34	Z34	X35	Y35	Z35	X36	Y36	Z36	X37	Y37	Z37	X38	Y38	Z38	X39	Y39	Z39	X40	Y40	Z40	X41	Y41	Z41	X42	Y42	Z42	X43	Y43	Z43	X44	Y44	Z44	X45	Y45	Z45	X46	Y46	Z46	X47	Y47	Z47	X48	Y48	Z48	X49	Y49	Z49	X50	Y50	Z50	X51	Y51	Z51	X52	Y52	Z52	X53	Y53	Z53	X54	Y54	Z54	X55	Y55	Z55	X56	Y56	Z56	X57	Y57	Z57	X58	Y58	Z58	X59	Y59	Z59	X60	Y60	Z60	X61	Y61	Z61	

1	0	-168.1239471435547	1637.707641601563	-886.592956542969	-297.5997009277344	1570.495971679688	-997.5247802734377	-301.6356201171876	1577.857299804688	-845.8367919921877	-352.3142089843751	1452.621948242188	-915.4836425781252	-380.3183593750001	1132.077270507813	-920.6185302734377	-221.3000640869141	1371.0556640625	-913.8826904296877	-297.5174865722657	1403.437866210938	-1084.293090820313	-322.8088684082032	1260.942993164063	-1219.180419921875	-305.0167846679688	1215.854370117188	-1206.727172851563	-333.7893676757813	1205.755859375	-1260.094604492188	-347.3391723632813	1157.487548828125	-1288.525512695313	-425.0560913085939	1142.7314453125	-1246.193115234375	-315.0381774902344	1013.841247558594	-1098.971435546875	-273.5423278808594	978.9880981445315	-1133.67626953125	-266.8783264160157	1037.8076171875	-1082.846313476563	-297.7593688964844	1395.341674804688	-750.6907958984376	-356.7650756835938	1267.452270507813	-612.3975219726564	-324.9482421875001	1228.931884765625	-607.1986083984376	-369.8380432128907	1211.572509765625	-570.2105102539064	-364.7179260253907	1142.00244140625	-545.2177124023439	-433.3332519531251	1125.54150390625	-601.8905639648439	-317.3277893066407	1009.258239746094	-740.3837280273439	-266.7043762207032	1034.206665039063	-747.1978149414064	-271.6443786621094	978.4141235351565	-700.6444702148439	-223.8189086914063	945.876159667969	-1029.888793945313	-213.4104919433594	944.4570922851565	-816.3620605468752	-383.0736083984376	1027.084716796875	-915.2487792968752	-392.1473693847657	998.627380371094	-943.2183837890627	-389.003143310547	997.3195800781252	-886.9099731445315	-316.9664001464844	798.271423339844	-1094.01806640625	-297.4376220703126	715.4638061523439	-1092.244506835938	-248.9159088134766	712.4609985351564	-1080.501586914063	-333.1398925781251	667.3692016601564	-1080.029418945313	-351.1049499511719	507.5838623046876	-1054.465454101563	-314.5233459472657	496.7318725585939	-941.2290039062502	-319.6096801757813	362.4694519042969	-994.1704711914065	-345.0209045410157	312.2206726074219	-1062.294799804688	-315.4176025390626	313.9074707031251	-1027.265380859375	-326.4636230468751	235.219467163086	-997.330993652344	-385.806121826172	110.3101577758789	-1052.5810546875	-354.7187500000001	120.2194213867188	-974.127136230469	-441.8721008300782	97.25225067138675	-1006.86328125	-240.1859893798829	53.56137466430665	-993.6799926757815	-235.204574584961	50.6673927307129	-1032.333129882813	-259.8973083496094	44.81486129760743	-1082.55615234375	-326.4235839843751	704.0864257812501	-757.1105346679689	-294.6534729003907	645.3483276367189	-753.8624267578126	-260.0388488769532	645.4746093750001	-758.2362060546876	-325.4913330078126	570.7116699218751	-770.5694580078127	-334.0637207031251	509.7541503906251	-777.5919189453127	-292.6360778808594	501.7977600097657	-890.368103027344	-296.7853698730469	377.1173706054688	-792.970886230469	-368.7233276367188	297.0940246582032	-777.3650512695315	-321.9898376464844	293.8223266601563	-780.9726562500002	-304.2733459472657	248.1361236572266	-812.6744384765627	-367.1462707519532	110.9774017333985	-789.8706054687502	-336.5847473144532	121.8648223876953	-869.370544433594	-420.4113769531251	95.77453613281251	-835.5213623046877	-220.7695007324219	51.48431777954103	-847.7134399414065	-217.0493774414063	51.20666122436525	-801.845642089844	-248.8101196289063	35.66685104370118	-749.3562011718751	
2	0.005	-168.083740234375	1637.69970703125	-886.715270996094	-298.4158325195313	1569.856079101563	-997.3090820312502	-301.6060791015626	1577.836669921875	-845.8860473632815	-352.3066101074219	1452.631225585938	-915.5064697265627	-380.3496093750001	1132.056274414063	-920.7246704101565	-221.3522186279297	1371.036987304688	-913.9538574218752	-298.4925537109376	1403.630615234375	-1084.764770507813	-322.8627014160157	1260.919189453125	-1219.253051757813	-305.1196899414063	1215.84130859375	-1206.806030273438	-333.9244079589844	1205.760009765625	-1260.146118164063	-347.4169311523438	1157.473388671875	-1288.614990234375	-425.1810302734376	1142.731079101563	-1246.278930664063	-315.1404724121094	1013.832397460938	-1099.050048828125	-273.5836181640626	979.0438232421877	-1133.778564453125	-266.9769897460938	1037.80859375	-1082.970458984375	-297.7762756347657	1395.342163085938	-750.7817382812501	-356.7322692871094	1267.453491210938	-612.4750366210939	-324.9328308105469	1228.930908203125	-607.2359008789064	-369.8087463378907	1211.595581054688	-570.2512207031251	-364.6844787597657	1142.024047851563	-545.3098754882814	-433.2628173828126	1125.546020507813	-601.9174194335939	-317.3409423828126	1009.269714355469	-740.4763793945314	-266.7332763671876	1034.200805664063	-747.2874755859376	-271.6669006347657	978.4111328125002	-700.7258300781251	-223.806137084961	945.8981933593752	-1030.017822265625	-213.4435424804688	944.4460449218752	-816.4416503906252	-383.1402587890626	1027.048461914063	-915.3632812500002	-392.1968383789064	998.6289672851565	-943.3205566406252	-389.0639038085939	997.3596801757815	-886.962097167969	-316.9768676757813	798.2988281250002	-1094.1533203125	-297.3829040527344	715.4838867187501	-1092.350708007813	-248.908676147461	712.4940185546876	-1080.588989257813	-333.1196289062501	667.3200683593751	-1080.061401367188	-351.0585327148438	507.5796813964845	-1054.5556640625	-314.4537353515626	496.7334289550782	-941.2874145507815	-319.5476684570313	362.4404296875001	-994.248474121094	-345.0316467285157	312.1814575195313	-1062.320922851563	-315.3417358398438	313.8847961425782	-1027.277221679688	-327.0178833007813	235.5480041503907	-997.619812011719	-385.8116760253907	110.2938003540039	-1052.552734375	-354.6946716308594	120.2250747680664	-974.1031494140627	-442.3267517089845	97.45394134521487	-1006.964050292969	-240.2288360595704	53.53955841064455	-993.645202636719	-235.2232360839844	50.66387939453126	-1032.298217773438	-259.9372253417969	44.79071807861329	-1082.508056640625	-326.4667358398438	704.0937500000001	-757.1655273437501	-294.6431884765626	645.3577880859376	-753.8698120117189	-260.0263977050782	645.4929809570314	-758.2587280273439	-325.4948425292969	570.7164306640626	-770.619812011719	-334.0670166015626	509.7695922851564	-777.5930175781252	-292.5270690917969	501.7414855957032	-890.3960571289065	-296.8158569335938	377.1176757812501	-792.937683105469	-368.7882080078126	297.0625000000001	-777.4193115234377	-321.9916076660157	293.8024597167969	-780.9487915039065	-304.2952880859376	248.1429138183594	-812.6963500976565	-367.1292114257813	110.9787292480469	-789.8659667968752	-336.6161499023438	121.8517532348633	-869.3748779296877	-420.4114074707032	95.78091430664064	-835.4597778320315	-220.7471923828126	51.47216033935548	-847.657409667969	-217.0678710937501	51.20455932617189	-801.8423461914065	-248.7920532226563	35.67800903320313	-749.3712768554689	
3	0.01	-168.1175384521485	1637.708740234375	-886.850036621094	-298.3990478515626	1569.826904296875	-997.3427734375002	-301.5092163085938	1577.795654296875	-845.883483886719	-352.3385009765626	1452.62060546875	-915.5656738281252	-380.3212280273438	1132.068237304688	-920.820983886719	-221.3599548339844	1371.012573242188	-914.0430908203127	-297.6780090332032	1403.452026367188	-1084.394409179688	-322.9879760742188	1260.997802734375	-1219.3154296875	-305.2075500488282	1215.875732421875	-1206.860961914063	-333.9403076171876	1205.808837890625	-1260.199340820313	-347.4918518066407	1157.535888671875	-1288.672607421875	-425.2835388183595	1142.753662109375	-1246.332397460938	-315.2241210937501	1013.853820800781	-1099.144409179688	-273.6642150878907	979.0281372070315	-1133.957153320313	-267.0174865722657	1037.808349609375	-1083.090698242188	-297.7625122070313	1395.351440429688	-750.8610839843751	-356.7414245605469	1267.438354492188	-612.5451049804689	-324.9191589355469	1228.9072265625	-607.3103027343751	-369.7778930664063	1211.582885742188	-570.3367309570314	-364.6355590820313	1141.986083984375	-545.4029541015626	-433.3056030273439	1125.581909179688	-601.9805297851564	-317.4131469726563	1009.260437011719	-740.5186767578126	-266.7076110839844	1034.2001953125	-747.4018554687501	-271.6389465332032	978.4023437500002	-700.8367919921876	-223.8283233642579	945.907897949219	-1030.055908203125	-213.4805755615235	944.4370727539065	-816.4998168945315	-383.1000976562501	1027.068481445313	-915.4951782226565	-392.2215881347657	998.6362304687502	-943.4187622070315	-389.0487060546876	997.3421020507815	-887.1362304687502	-316.9621276855469	798.303649902344	-1094.213745117188	-297.4007263183594	715.4829101562501	-1092.477294921875	-248.9281463623047	712.4968872070314	-1080.6572265625	-333.0958557128907	667.3477172851564	-1080.157348632813	-350.9683227539063	507.5970153808595	-1054.638916015625	-314.4159240722657	496.737518310547	-941.3816528320315	-319.4884948730469	362.4604797363282	-994.2723388671877	-344.9502563476563	312.2142333984376	-1062.37255859375	-315.3255920410157	313.8730773925782	-1027.293701171875	-326.4926147460938	235.2085571289063	-997.355407714844	-385.8241271972657	110.3073959350586	-1052.587768554688	-354.7336120605469	120.2112121582032	-974.1116333007815	-441.8799133300782	97.24140930175784	-1006.863159179688	-240.2288360595704	53.53954315185548	-993.645202636719	-235.2324829101563	50.66238021850587	-1032.314697265625	-259.9372253417969	44.79071807861329	-1082.508056640625	-326.5035095214844	704.1124877929689	-757.2434692382814	-294.6897583007813	645.3583374023439	-753.9381103515626	-260.1051025390626	645.4691162109376	-758.3139038085939	-325.5134277343751	570.7226562500001	-770.6420898437502	-334.1112060546876	509.7796630859376	-777.6293945312502	-292.5202941894532	501.749237060547	-890.392517089844	-296.8378906250001	377.0939025878907	-792.980163574219	-368.7827453613282	297.0840148925782	-777.382751464844	-321.9956970214844	293.8005981445313	-780.9307861328127	-304.2919616699219	248.1110839843751	-812.686706542969	-367.1580505371094	110.9473495483399	-789.8558349609377	-336.6131591796876	121.8335113525391	-869.3514404296877	-420.408660888672	95.76844024658205	-835.5141601562502	-220.7914428710938	51.45951080322267	-847.670837402344	-217.0626373291016	51.19321060180665	-801.8362426757815	-248.7752685546876	35.69199371337891	-749.3498535156251	
4	0.015	-168.0707397460938	1637.727783203125	-886.9302978515627	-298.5262451171876	1569.82763671875	-997.3543090820315	-301.5410156250001	1577.817626953125	-845.8764648437502	-352.3652954101563	1452.642700195313	-915.6531982421877	-380.3736267089844	1132.075561523438	-920.9329833984377	-221.4082489013672	1371.015258789063	-914.123474121094	-297.6614685058594	1403.461181640625	-1084.487426757813	-323.1000061035157	1261.028564453125	-1219.390625	-305.3264160156251	1215.861328125	-1206.99755859375	-334.1005859375001	1205.84521484375	-1260.251220703125	-347.6354064941407	1157.58935546875	-1288.771240234375	-425.3465576171876	1142.82275390625	-1246.391479492188	-315.2485656738282	1013.863952636719	-1099.287231445313	-273.6613464355469	979.0615844726565	-1134.060913085938	-266.9873657226563	1037.83544921875	-1083.23291015625	-297.7302856445313	1395.3427734375	-750.9451293945314	-356.6973876953126	1267.457397460938	-612.5971069335939	-324.8682250976563	1228.910278320313	-607.3966064453126	-369.7035522460938	1211.610717773438	-570.3927001953126	-364.6566772460938	1142.039916992188	-545.4306640625001	-433.2713623046876	1125.58984375	-602.1486816406251	-317.4377746582032	1009.306335449219	-740.6456909179689	-266.7519531250001	1034.174072265625	-747.4472656250001	-271.6718444824219	978.3882446289065	-700.9413452148439	-223.8356018066407	945.889099121094	-1030.148803710938	-213.5411376953126	944.3748168945315	-816.647155761719	-383.1604003906251	1027.072265625	-915.6002197265627	-392.1976013183595	998.6489257812502	-943.5648193359377	-389.0820617675782	997.3179321289065	-887.2012329101565	-316.9613952636719	798.2827758789065	-1094.372192382813	-297.3627929687501	715.4797363281251	-1092.59716796875	-248.8816375732422	712.5336914062501	-1080.748657226563	-333.0481872558594	667.3677368164064	-1080.225219726563	-350.9272460937501	507.582000732422	-1054.686401367188	-314.3807067871094	496.7554626464845	-941.4863891601565	-319.5070190429688	362.4588623046876	-994.3193969726565	-344.9174804687501	312.1978149414063	-1062.379028320313	-315.2594299316407	313.8535461425782	-1027.29443359375	-326.9345092773438	235.5500030517579	-997.6401367187502	-385.8245849609376	110.3061676025391	-1052.55419921875	-354.7189331054688	120.2546768188477	-974.110778808594	-442.3253784179689	97.48973083496097	-1006.969360351563	-240.235336303711	53.55301666259767	-993.6450805664065	-235.1965332031251	50.64622497558595	-1032.297729492188	-259.8943786621094	44.8145866394043	-1082.48828125	-326.5260314941407	704.1246948242189	-757.2959594726564	-294.7159729003907	645.3432617187501	-754.0177001953126	-260.1027221679688	645.4674072265626	-758.3386230468751	-325.5440673828126	570.7473144531251	-770.7027587890627	-334.1290893554688	509.7492675781251	-777.673522949219	-292.5411071777344	501.7284545898439	-890.3894653320315	-296.8378906250001	377.0939025878907	-792.980163574219	-368.7846374511719	297.0773620605469	-777.4150390625002	-322.0195922851563	293.8157348632813	-780.9378662109377	-304.2734985351563	248.1033172607422	-812.6879882812502	-367.1551513671876	110.9512100219727	-789.8332519531252	-336.6076354980469	121.8182067871094	-869.3118896484377	-420.394989013672	95.74475860595705	-835.4888916015627	-220.7891693115235	51.4690399169922	-847.653259277344	-217.0661163330079	51.19036865234376	-801.8298950195315	-248.8131561279297	35.6322364807129	-749.3317260742189	
